<svg width="32" height="32" viewBox="0 0 32 32" fill="none" xmlns="http://www.w3.org/2000/svg">
<circle cx="16" cy="16" r="16" fill="white"/>
<path d="M19.7364 23.8402V18.9815H19.0281L18.9912 23.8402L19.7364 23.8402Z" fill="#FE401E"/>
<path d="M21.1529 23.8402V18.9815H20.4446L20.4078 23.8402L21.1529 23.8402Z" fill="#FE401E"/>
<path d="M19.8083 12.6989V7.8402H19.1001L19.0632 12.6989L19.8083 12.6989Z" fill="#FE401E"/>
<path d="M21.2248 12.6989V7.84021H20.5166L20.4797 12.6989L21.2248 12.6989Z" fill="#FE401E"/>
<path d="M13.7365 23.8402V7.84692L18.3918 7.8402V12.6989L16.1121 12.6989L16.077 18.9815L18.3199 18.9815V23.8402L13.7365 23.8402Z" fill="#FE401E"/>
<mask id="mask0_365_26" style="mask-type:alpha" maskUnits="userSpaceOnUse" x="16" y="13" width="8" height="6">
<path d="M17.9165 13.8574V18.2497H17.3865V13.8574H17.9165ZM19.43 13.6577V14.255H16V13.6577H19.43Z" fill="black"/>
<path d="M21.2063 17.6373V18.2497H19.8221V17.6373H21.2063ZM19.9623 13.6577V18.2497H19.43V13.6577H19.9623ZM21.0202 15.6855V16.2888H19.8221V15.6855H21.0202ZM22.1334 13.6577V14.2567H19.8221L19.8206 13.6577H22.1334Z" fill="black"/>
<path d="M21.9291 13.6577H22.8929C23.1031 13.6577 23.2813 13.708 23.4273 13.8085C23.5733 13.9091 23.6843 14.0579 23.7602 14.255C23.8376 14.4501 23.8763 14.6924 23.8763 14.982C23.8763 15.2013 23.8522 15.3943 23.804 15.5612C23.7573 15.7282 23.6894 15.869 23.6003 15.9836C23.5113 16.0962 23.4039 16.1837 23.2784 16.246L23.1228 16.3637H22.3081L22.3059 15.7483H22.8797C22.9834 15.7483 23.0695 15.7171 23.1382 15.6548C23.2068 15.5924 23.2579 15.5059 23.2915 15.3953C23.3265 15.2847 23.3441 15.159 23.3441 15.0182C23.3441 14.8674 23.3287 14.7367 23.2981 14.6261C23.2674 14.5134 23.2192 14.427 23.1535 14.3666C23.0878 14.3043 23.0009 14.2731 22.8929 14.2731H22.4614V18.2497H21.9291V13.6577ZM23.5211 18.2497L22.8074 16.0771L23.3616 16.0741L23.9836 18.2497H23.5211Z" fill="black"/>
</mask>
<g mask="url(#mask0_365_26)">
<path d="M24.4466 19.2481V23.8401H15.8531V19.2481H24.4466ZM16.2705 8.06108V23.8401H13.9432V8.0677L16.2705 8.06108ZM24.4466 13.6579V18.2499H15.8531V13.6579H24.4466ZM24.4466 8.0677V12.6597H15.8531V8.0677H24.4466Z" fill="#FE401E"/>
</g>
<mask id="mask1_365_26" style="mask-type:alpha" maskUnits="userSpaceOnUse" x="21" y="7" width="3" height="6">
<path d="M22.9561 10.4532H22.3408L22.3387 9.89211H22.8836C22.9679 9.89211 23.0397 9.86797 23.0991 9.8197C23.1585 9.77144 23.2034 9.70105 23.2338 9.60854C23.2655 9.51602 23.2814 9.40441 23.2814 9.27368C23.2814 9.12888 23.2676 8.81158 23.24 8.72108C23.2123 8.62857 23.1688 8.56119 23.1094 8.51896C23.0514 8.47672 22.9768 8.45561 22.8857 8.45561H22.4899V12.6318H21.9865V7.8402H22.8857C23.0266 7.8402 23.1523 7.86434 23.2628 7.9126C23.3747 7.95886 23.4693 8.03025 23.5466 8.12679C23.624 8.22332 23.6827 8.34701 23.7227 8.49784C23.7642 8.64667 23.7849 9.0233 23.7849 9.22843C23.7849 9.40742 23.7587 9.57234 23.7062 9.72317C23.6537 9.87199 23.5756 9.99467 23.472 10.0912C23.3698 10.1857 23.2427 10.242 23.0908 10.2601L22.9561 10.4532ZM22.9375 12.6318H22.175L22.4071 12.0194H22.9375C23.0273 12.0194 23.1012 11.9913 23.1592 11.935C23.2172 11.8786 23.2607 11.8002 23.2897 11.6997C23.3187 11.5991 23.3332 11.2818 23.3332 11.1471C23.3332 11.0063 23.3208 10.8836 23.2959 10.779C23.2711 10.6744 23.231 10.594 23.1757 10.5377C23.1205 10.4814 23.0473 10.4532 22.9561 10.4532H22.4485L22.4526 9.89211H23.1012L23.2172 10.1063C23.3622 10.1103 23.4803 10.1626 23.5715 10.2632C23.6627 10.3617 23.7296 10.4894 23.7725 10.6463C23.8153 10.8031 23.8367 10.9711 23.8367 11.1501C23.8367 11.4296 23.8008 11.8646 23.729 12.0556C23.6571 12.2447 23.5542 12.3885 23.4202 12.487C23.2876 12.5835 23.1267 12.6318 22.9375 12.6318Z" fill="black"/>
</mask>
<g mask="url(#mask1_365_26)">
<path d="M23.8467 19.2483V23.8402H15.8531V19.2483H23.8467ZM16.2705 7.84021V23.8402H13.9432V7.84021H16.2705ZM23.7528 13.658L23.7203 18.25H15.8531V13.658H23.7528ZM24.4466 7.84021V12.8594H15.8531V7.84021H24.4466Z" fill="#FE401E"/>
</g>
<mask id="mask2_365_26" style="mask-type:alpha" maskUnits="userSpaceOnUse" x="21" y="19" width="3" height="5">
<path d="M23.1074 19.0483V23.8399H22.5363V19.0483H23.1074ZM23.983 19.0483V19.7197H21.6702V19.0483H23.983Z" fill="black"/>
</mask>
<g mask="url(#mask2_365_26)">
<path d="M24.4466 19.0485V23.8401L15.8531 23.8401L15.8892 19.0485H24.4466ZM16.2705 8.06108V23.8401H13.9432V8.0677L16.2705 8.06108ZM23.7528 13.6579L23.7203 18.2499H15.8531V13.6579H23.7528ZM23.7203 8.06769L23.7528 12.6597H15.8531V8.0677L23.7203 8.06769Z" fill="#FE401E"/>
</g>
<path d="M9.38854 11.3871L10.2305 7.84019H10.7509L10.7292 8.72926L9.81858 12.3822H9.2729L9.38854 11.3871ZM8.8537 7.84019L9.52225 11.3621L9.55116 12.3822H8.97657L7.98279 7.84019H8.8537ZM11.6652 11.3497L12.3265 7.84019H13.1938L12.2037 12.3822H11.6291L11.6652 11.3497ZM10.9605 7.84019L11.7953 11.3965L11.9037 12.3822H11.358L10.4691 8.72614L10.4474 7.84019H10.9605Z" fill="black"/>
<path d="M10.9482 16.5651H9.83876V15.9318H10.9482C11.1289 15.9318 11.2746 15.8985 11.3854 15.832C11.4987 15.7654 11.5806 15.6739 11.6312 15.5575C11.6842 15.441 11.7107 15.3089 11.7107 15.1613C11.7107 15.0199 11.6842 14.8868 11.6312 14.762C11.5806 14.6372 11.4999 14.5363 11.3891 14.4594C11.2782 14.3824 11.1313 14.344 10.9482 14.344H10.0845V18.2496H9.20996V13.7076H10.9482C11.2951 13.7076 11.5914 13.77 11.8372 13.8948C12.0829 14.0195 12.2708 14.1911 12.4009 14.4095C12.531 14.6258 12.5961 14.8743 12.5961 15.155C12.5961 15.4483 12.531 15.6999 12.4009 15.91C12.2708 16.12 12.0829 16.2822 11.8372 16.3966C11.5914 16.5089 11.2951 16.5651 10.9482 16.5651Z" fill="black"/>
<path d="M12.3147 19.2982V23.8403H11.4546L9.59716 20.6958V23.8403H8.74792V19.2982H9.59716L11.4691 22.4645V19.2982H12.3147Z" fill="black"/>
</svg>
