<svg viewBox="0 0 57 58" fill="none" xmlns="http://www.w3.org/2000/svg">
<path fill-rule="evenodd" clip-rule="evenodd" d="M9.86369 0.660058C10.9417 1.45556 11.8482 2.92544 12.6149 4.82598C14.1666 8.67261 15.2678 14.6116 15.7417 21.4294C16.2169 28.2655 16.0323 35.5679 15.2216 41.8965L13.2378 41.6424C14.0307 35.4535 14.2133 28.2831 13.7465 21.5681C13.2785 14.8348 12.1973 9.13687 10.7601 5.57418C10.0323 3.77005 9.29748 2.72782 8.67617 2.26935C8.38623 2.05539 8.16181 1.99803 7.99105 2.00005C7.81978 2.00208 7.58851 2.06524 7.28794 2.2964C6.64487 2.79099 5.91062 3.88254 5.19737 5.68055C4.49798 7.44361 3.86717 9.75985 3.35235 12.5485C2.32301 18.1241 1.85174 25.0748 2.04095 32.0103C2.23032 38.9518 3.06582 45.3095 4.35968 49.8243C5.00876 52.0893 5.73087 53.7405 6.45383 54.7795C7.20159 55.8543 7.76392 56.0305 8.08292 55.9955C8.46718 55.9533 9.10418 55.5671 9.86411 54.2826C10.5801 53.0723 11.2734 51.28 11.884 48.9315V46.5001V45.5001H12.884H23V41.7694H25V46.5001V47.5001H24H13.884V49.0586V49.1849L13.8526 49.3072C13.2113 51.8057 12.4489 53.8414 11.5854 55.3009C10.7536 56.707 9.67438 57.8328 8.30115 57.9836C6.86265 58.1415 5.6906 57.1844 4.81211 55.9218C3.90884 54.6236 3.11286 52.7334 2.43707 50.3753C1.08116 45.644 0.233777 39.1056 0.0416948 32.0648C-0.15055 25.0182 0.326083 17.9244 1.38558 12.1854C1.91517 9.31677 2.57576 6.86534 3.3383 4.94307C4.08698 3.05576 4.98519 1.54434 6.06865 0.711056C6.63135 0.278285 7.27105 0.00843692 7.96736 0.000189006C8.66419 -0.00806504 9.30395 0.247023 9.86369 0.660058ZM23 15H22.4151L22.1284 15.5097L17.6284 23.5097L19.3716 24.4903L23.5848 17H30.646L25.0442 35.2059L24.8088 35.9711L25.5039 36.3682L39 44.0803V56.5H41V43.5V42.9197L40.4961 42.6318L27.1912 35.0289L32.7386 17H39.9137L33.0794 33.1094L34.9206 33.8905L41.4446 18.5124L47.6624 28.0463L47.9583 28.5H48.5H56.5V26.5H49.0417L41.8376 15.4537L41.5417 15H41H32H23ZM43 7C43 9.20914 41.2091 11 39 11C36.7909 11 35 9.20914 35 7C35 4.79086 36.7909 3 39 3C41.2091 3 43 4.79086 43 7ZM45 7C45 10.3137 42.3137 13 39 13C35.6863 13 33 10.3137 33 7C33 3.68629 35.6863 0.999996 39 0.999996C42.3137 0.999996 45 3.68629 45 7Z" fill="currentColor"/>
</svg>
