<svg viewBox="0 0 52 52" fill="none" xmlns="http://www.w3.org/2000/svg" >
<path d="M41.6252 26L41.9916 26.3402L42.3194 25.9871L41.9787 25.6464L41.6252 26ZM30.3716 14.0393C30.1763 13.844 29.8597 13.844 29.6645 14.0393C29.4692 14.2346 29.4692 14.5511 29.6645 14.7464L30.3716 14.0393ZM29.6516 38.1598C29.4637 38.3621 29.4754 38.6785 29.6778 38.8664C29.8802 39.0543 30.1965 39.0426 30.3844 38.8402L29.6516 38.1598ZM1.89302 25.5C1.61688 25.5 1.39302 25.7239 1.39302 26C1.39302 26.2761 1.61688 26.5 1.89302 26.5V25.5ZM16.625 1.5H35.375V0.5H16.625V1.5ZM50.5 16.625V35.375H51.5V16.625H50.5ZM35.375 50.5H16.625V51.5H35.375V50.5ZM1.5 19.75V16.625H0.5V19.75H1.5ZM1.5 35.375V32.6964H0.5V35.375H1.5ZM16.625 50.5C8.27169 50.5 1.5 43.7283 1.5 35.375H0.5C0.5 44.2806 7.71941 51.5 16.625 51.5V50.5ZM50.5 35.375C50.5 43.7283 43.7283 50.5 35.375 50.5V51.5C44.2806 51.5 51.5 44.2806 51.5 35.375H50.5ZM35.375 1.5C43.7283 1.5 50.5 8.27169 50.5 16.625H51.5C51.5 7.71941 44.2806 0.5 35.375 0.5V1.5ZM16.625 0.5C7.71941 0.5 0.5 7.71941 0.5 16.625H1.5C1.5 8.27169 8.27169 1.5 16.625 1.5V0.5ZM41.9787 25.6464L30.3716 14.0393L29.6645 14.7464L41.2716 26.3536L41.9787 25.6464ZM41.2588 25.6598L29.6516 38.1598L30.3844 38.8402L41.9916 26.3402L41.2588 25.6598ZM1.89302 26.5H41.6252V25.5H1.89302V26.5Z" fill="currentColor"/>
</svg>
