<svg width="33" height="33" viewBox="0 0 33 33" fill="none" xmlns="http://www.w3.org/2000/svg">
<path d="M27.5714 13V7.28571L21 1H6.42857M12.7143 28.1429H1V3.85714L3.57143 1H6.42857M6.42857 1V10.4286H19.8571V1.1353" stroke="currentColor"/>
<circle cx="23.8572" cy="23.8571" r="8.64286" stroke="currentColor"/>
<path d="M28.2108 24.2107C28.406 24.0154 28.406 23.6989 28.2108 23.5036L25.0288 20.3216C24.8335 20.1264 24.5169 20.1264 24.3217 20.3216C24.1264 20.5169 24.1264 20.8335 24.3217 21.0287L27.1501 23.8571L24.3217 26.6856C24.1264 26.8808 24.1264 27.1974 24.3217 27.3927C24.5169 27.5879 24.8335 27.5879 25.0288 27.3927L28.2108 24.2107ZM18.7144 24.3571L27.8572 24.3571V23.3571L18.7144 23.3571V24.3571Z" fill="currentColor"/>
<path d="M12.8069 23.056C12.2714 22.8663 11.7824 22.5646 11.3725 22.1711C10.9627 21.7776 10.6414 21.3013 10.43 20.774C10.2186 20.2466 10.122 19.6802 10.1466 19.1126C10.1712 18.545 10.3164 17.9891 10.5726 17.482C10.8288 16.9748 11.1901 16.5281 11.6325 16.1715C12.0748 15.815 12.588 15.5567 13.138 15.414C13.6879 15.2713 14.262 15.2473 14.8219 15.3438C15.3818 15.4402 15.9148 15.6549 16.3852 15.9734" stroke="currentColor"/>
</svg>
