<svg viewBox="0 0 51 51" fill="none" xmlns="http://www.w3.org/2000/svg">
<path fill-rule="evenodd" clip-rule="evenodd" d="M5.19973 0.732002H4.97705L4.82808 0.89752L0.860531 5.30591L0.732178 5.44852V5.64039V43.1117V43.6117H1.23218H19.3066V42.6117H1.73218V5.83226L5.42241 1.732H9.10812V15.7797V16.2797H9.60812H30.3275H30.8275V15.7797V1.732H31.8903L41.7302 11.1441V19.7472H42.7302V10.9305V10.7168L42.5758 10.5691L32.4365 0.870681L32.2915 0.732002H32.0909H9.60812H5.19973ZM10.1081 15.2797V1.732H29.8275V15.2797H10.1081ZM49.6071 36.4999C49.6071 43.7386 43.7389 49.6067 36.5002 49.6067C29.2615 49.6067 23.3934 43.7386 23.3934 36.4999C23.3934 29.2612 29.2615 23.393 36.5002 23.393C43.7389 23.393 49.6071 29.2612 49.6071 36.4999ZM50.6071 36.4999C50.6071 44.2909 44.2912 50.6067 36.5002 50.6067C28.7092 50.6067 22.3934 44.2909 22.3934 36.4999C22.3934 28.7089 28.7092 22.393 36.5002 22.393C44.2912 22.393 50.6071 28.7089 50.6071 36.4999ZM39.8427 32.9643L43.0247 36.1463C43.22 36.3416 43.22 36.6582 43.0247 36.8534L39.8427 40.0354C39.6475 40.2307 39.3309 40.2307 39.1356 40.0354C38.9404 39.8402 38.9404 39.5236 39.1356 39.3283L41.4641 36.9999H28.5643V35.9999H41.4641L39.1356 33.6715C38.9404 33.4762 38.9404 33.1596 39.1356 32.9643C39.3309 32.7691 39.6475 32.7691 39.8427 32.9643ZM20.0862 23.9566C20.866 23.7542 21.6799 23.7202 22.4738 23.857C23.2678 23.9938 24.0235 24.2981 24.6906 24.7497L25.2512 23.9217C24.4664 23.3904 23.5775 23.0324 22.6436 22.8715C21.7097 22.7106 20.7522 22.7506 19.835 22.9886C18.9177 23.2267 18.0617 23.6574 17.3239 24.2522C16.5861 24.8469 15.9834 25.592 15.5561 26.4379C15.1287 27.2837 14.8865 28.2109 14.8455 29.1577C14.8045 30.1044 14.9656 31.0491 15.3182 31.9287C15.6708 32.8083 16.2067 33.6028 16.8903 34.2591C17.5739 34.9154 18.3895 35.4186 19.2827 35.7351L19.6167 34.7925C18.8574 34.5234 18.164 34.0957 17.5829 33.5377C17.0018 32.9798 16.5462 32.3044 16.2464 31.5567C15.9467 30.8089 15.8097 30.0058 15.8445 29.2009C15.8794 28.3961 16.0854 27.6079 16.4486 26.8888C16.8119 26.1697 17.3242 25.5363 17.9514 25.0307C18.5787 24.5251 19.3064 24.1589 20.0862 23.9566Z" fill="currentColor"/>
</svg>
