<svg width="34" height="34" viewBox="0 0 34 34" fill="none" xmlns="http://www.w3.org/2000/svg">
<path d="M1.50167 11.6667C1.50167 11.6667 1.22499 9.54047 2.02014 8.61905C3.07406 7.39777 6.16791 8.11111 6.16791 8.11111" stroke="black"/>
<path d="M32.6094 33C32.6094 33 34.2747 29.1536 32.6094 28.4286C31.8693 28.1063 30.5356 28.4286 30.5356 28.4286C30.5356 28.4286 30.0108 27.6636 29.4986 27.4127C28.7742 27.0579 27.4247 27.4127 27.4247 27.4127C27.4247 27.4127 26.5736 26.585 25.8693 26.3968C25.2833 26.2403 24.3139 26.3968 24.3139 26.3968C24.3139 26.3968 23.7951 25.8889 22.7585 25.381C21.7219 24.873 21.1785 25.0714 20.1661 24.873V16.2381C20.1661 16.2381 19.54 14.6 18.6107 14.2063C17.8674 13.8914 17.2802 13.8914 16.5369 14.2063C15.6076 14.6 14.9814 16.2381 14.9814 16.2381V29.9524L10.8337 26.3968C10.8337 26.3968 9.91855 25.8889 9.27826 25.8889C9.27826 25.8889 7.90757 25.4952 7.20438 25.8889C6.57053 26.2437 6.35456 26.7214 6.16744 27.4127C5.72098 29.0621 7.7231 28.9365 8.76005 30.9683C9.79699 33 9.79699 32.4921 9.79699 32.4921" stroke="black"/>
<path d="M6.70489 3.53968C6.70489 4.65654 5.77783 5.57937 4.61253 5.57937C3.44723 5.57937 2.52018 4.65654 2.52018 3.53968C2.52018 2.42282 3.44723 1.5 4.61253 1.5C5.77783 1.5 6.70489 2.42282 6.70489 3.53968Z" stroke="black"/>
<path d="M32.6283 3.53968C32.6283 4.65654 31.7013 5.57937 30.536 5.57937C29.3707 5.57937 28.4436 4.65654 28.4436 3.53968C28.4436 2.42282 29.3707 1.5 30.536 1.5C31.7013 1.5 32.6283 2.42282 32.6283 3.53968Z" stroke="black"/>
<path d="M10.8342 13.8658C9.85531 12.5318 9.27881 10.8953 9.27881 9.12699C9.27881 4.63858 12.9928 1 17.5743 1C22.1558 1 25.8699 4.63858 25.8699 9.12699C25.8699 10.9794 25.2517 12.7736 24.1976 14.2064" stroke="black"/>
<path d="M20.185 6.07937C20.185 7.47676 19.0258 8.62699 17.5742 8.62699C16.1226 8.62699 14.9634 7.47676 14.9634 6.07937C14.9634 4.68199 16.1226 3.53175 17.5742 3.53175C19.0258 3.53175 20.185 4.68199 20.185 6.07937Z" stroke="black"/>
<path d="M12.3896 15.7302C12.3896 15.7302 12.9544 14.4554 13.4266 13.6984C13.4266 13.6984 13.9451 12.6825 14.982 11.6667C16.0189 10.6508 18.735 10.264 20.1667 11.6667C20.807 12.2939 21.2037 13.6984 21.2037 13.6984" stroke="black"/>
<path d="M29.2224 7.90209C29.2224 7.90209 31.3604 7.44675 32.3666 8.14248C33.7003 9.06461 33.2446 12.1462 33.2446 12.1462" stroke="black"/>
</svg>
