<svg width="34" height="33" viewBox="0 0 34 33" fill="none" xmlns="http://www.w3.org/2000/svg">
<path d="M14.4933 0.5H19.5066C21.5507 0.5 22.4666 0.505004 23.201 0.718385C25.0092 1.24369 26.4229 2.65743 26.9482 4.46555C27.1616 5.20001 27.1666 6.11585 27.1666 8.16V25.1H6.83325V8.16001C6.83325 6.11585 6.83826 5.20001 7.05164 4.46555C7.57694 2.65743 8.99068 1.24369 10.7988 0.718385C11.5333 0.505004 12.4491 0.5 14.4933 0.5Z" stroke="currentColor"/>
<path d="M12 11.6L16 15.2L22.3333 8.39999" stroke="currentColor"/>
<path d="M27 16V16C30.3137 16 33 18.6863 33 22V26C33 29.3137 30.3137 32 27 32H7C3.68629 32 1 29.3137 1 26V22C1 18.6863 3.68629 16 7 16V16" stroke="currentColor"/>
</svg>
