<svg viewBox="0 0 33 33" fill="none" xmlns="http://www.w3.org/2000/svg">
<path fill-rule="evenodd" clip-rule="evenodd" d="M19.0066 1H13.9933C11.9142 1 11.0872 1.01001 10.4383 1.19853C8.79455 1.67608 7.50934 2.9613 7.03178 4.60504C6.84326 5.25394 6.83325 6.08099 6.83325 8.16001V24.6H26.1666V8.16C26.1666 6.08099 26.1566 5.25394 25.9681 4.60504C25.4905 2.9613 24.2053 1.67608 22.5615 1.19853C21.9126 1.01001 21.0856 1 19.0066 1ZM6.07149 4.32605C5.83325 5.14607 5.83325 6.15072 5.83325 8.16001V15.5338C2.55662 15.8676 0 18.6353 0 22V26C0 29.5899 2.91015 32.5 6.5 32.5H26.5C30.0899 32.5 33 29.5899 33 26V22C33 18.6352 30.4433 15.8675 27.1666 15.5338V8.16C27.1666 6.15072 27.1666 5.14607 26.9283 4.32605C26.3553 2.35356 24.813 0.8113 22.8405 0.238238C22.0205 0 21.0159 0 19.0066 0H13.9933C11.984 0 10.9793 0 10.1593 0.238238C8.18681 0.8113 6.64455 2.35356 6.07149 4.32605ZM27.1666 16.54V24.6V25.6H26.1666H6.83325H5.83325V24.6V16.54C3.11012 16.8691 1 19.1881 1 22V26C1 29.0376 3.46243 31.5 6.5 31.5H26.5C29.5376 31.5 32 29.0376 32 26V22C32 19.1881 29.8898 16.869 27.1666 16.54ZM22.1992 8.74078L15.8659 15.5408L15.5309 15.9005L15.1655 15.5716L11.1655 11.9716L11.8345 11.2284L15.4691 14.4995L21.4674 8.05923L22.1992 8.74078Z" fill="currentColor"/>
</svg>
