<svg viewBox="0 0 52 52" fill="none" xmlns="http://www.w3.org/2000/svg">
<path d="M1.0728 17.6667C1.0728 17.6667 0.64048 14.3445 1.88291 12.9048C3.52965 10.9965 8.36379 12.1111 8.36379 12.1111" stroke="currentColor"/>
<path d="M49.6787 51C49.6787 51 52.2806 44.99 49.6787 43.8571C48.5223 43.3536 46.4382 43.8571 46.4382 43.8571C46.4382 43.8571 45.6184 42.6619 44.818 42.2698C43.6861 41.7154 41.5776 42.2698 41.5776 42.2698C41.5776 42.2698 40.2477 40.9766 39.1472 40.6825C38.2316 40.4379 36.7169 40.6825 36.7169 40.6825C36.7169 40.6825 35.9062 39.8889 34.2866 39.0952C32.6669 38.3016 31.8179 38.6115 30.236 38.3016V24.8095C30.236 24.8095 29.2576 22.25 27.8057 21.6349C26.6442 21.1428 25.7268 21.1428 24.5653 21.6349C23.1134 22.25 22.1349 24.8095 22.1349 24.8095V46.2381L15.6541 40.6825C15.6541 40.6825 14.2242 39.8889 13.2237 39.8889C13.2237 39.8889 11.082 39.2738 9.98328 39.8889C8.9929 40.4433 8.65544 41.1896 8.36306 42.2698C7.66548 44.847 10.7938 44.6508 12.414 47.8254C14.0342 51 14.0342 50.2063 14.0342 50.2063" stroke="currentColor"/>
<path d="M9.48421 4.96825C9.48421 6.87409 7.9043 8.43651 5.93366 8.43651C3.96302 8.43651 2.38311 6.87409 2.38311 4.96825C2.38311 3.06242 3.96302 1.5 5.93366 1.5C7.9043 1.5 9.48421 3.06242 9.48421 4.96825Z" stroke="currentColor"/>
<path d="M49.9895 4.96825C49.9895 6.87409 48.4096 8.4365 46.439 8.4365C44.4683 8.4365 42.8884 6.87409 42.8884 4.96825C42.8884 3.06241 44.4683 1.5 46.439 1.5C48.4096 1.5 49.9895 3.06241 49.9895 4.96825Z" stroke="currentColor"/>
<path d="M15.6547 21.1027C14.1251 19.0184 13.2244 16.4615 13.2244 13.6984C13.2244 6.68527 19.0275 1 26.1861 1C33.3447 1 39.1479 6.68527 39.1479 13.6984C39.1479 16.5928 38.182 19.3962 36.5349 21.6349" stroke="currentColor"/>
<path d="M30.5465 8.93649C30.5465 11.2807 28.6039 13.1984 26.1859 13.1984C23.7678 13.1984 21.8252 11.2807 21.8252 8.93649C21.8252 6.59234 23.7678 4.67459 26.1859 4.67459C28.6039 4.67459 30.5465 6.59234 30.5465 8.93649Z" stroke="currentColor"/>
<path d="M18.0854 24.0158C18.0854 24.0158 18.9679 22.024 19.7057 20.8412C19.7057 20.8412 20.5158 19.2539 22.136 17.6666C23.7562 16.0793 28 15.475 30.2371 17.6666C31.2375 18.6467 31.8573 20.8412 31.8573 20.8412" stroke="currentColor"/>
<path d="M44.3863 11.7845C44.3863 11.7845 47.7268 11.073 49.2991 12.1601C51.383 13.6009 50.6709 18.416 50.6709 18.416" stroke="currentColor"/>
</svg>
